<svg width="25" height="25" viewBox="0 0 25 25" fill="#fff" xmlns="http://www.w3.org/2000/svg">
<path d="M12.4618 12.963C14.1143 12.963 15.6992 12.3776 16.8677 11.3358C18.0362 10.2939 18.6927 8.88083 18.6927 7.40741C18.6927 5.93398 18.0362 4.52091 16.8677 3.47904C15.6992 2.43717 14.1143 1.85185 12.4618 1.85185C10.8092 1.85185 9.22439 2.43717 8.05587 3.47904C6.88735 4.52091 6.23089 5.93398 6.23089 7.40741C6.23089 8.88083 6.88735 10.2939 8.05587 11.3358C9.22439 12.3776 10.8092 12.963 12.4618 12.963ZM12.4618 14.8148C10.2584 14.8148 8.14526 14.0344 6.58724 12.6452C5.02921 11.2561 4.15392 9.37197 4.15392 7.40741C4.15392 5.44284 5.02921 3.55874 6.58724 2.16958C8.14526 0.780421 10.2584 0 12.4618 0C14.6652 0 16.7783 0.780421 18.3363 2.16958C19.8943 3.55874 20.7696 5.44284 20.7696 7.40741C20.7696 9.37197 19.8943 11.2561 18.3363 12.6452C16.7783 14.0344 14.6652 14.8148 12.4618 14.8148ZM22.8466 24.0741V21.2963C22.8466 20.5596 22.5184 19.853 21.9341 19.3321C21.3498 18.8112 20.5574 18.5185 19.7311 18.5185H5.19241C4.36614 18.5185 3.57371 18.8112 2.98945 19.3321C2.4052 19.853 2.07696 20.5596 2.07696 21.2963V24.0741C2.07696 24.3196 1.96755 24.5552 1.7728 24.7288C1.57805 24.9024 1.3139 25 1.03848 25C0.763059 25 0.498917 24.9024 0.304164 24.7288C0.109411 24.5552 0 24.3196 0 24.0741V21.2963C0 20.0684 0.547055 18.8909 1.52082 18.0227C2.49459 17.1544 3.81529 16.6667 5.19241 16.6667H19.7311C21.1083 16.6667 22.429 17.1544 23.4027 18.0227C24.3765 18.8909 24.9235 20.0684 24.9235 21.2963V24.0741C24.9235 24.3196 24.8141 24.5552 24.6194 24.7288C24.4246 24.9024 24.1605 25 23.8851 25C23.6096 25 23.3455 24.9024 23.1507 24.7288C22.956 24.5552 22.8466 24.3196 22.8466 24.0741Z" fill="#fff"/>
</svg>
