<svg width="31" height="17" viewBox="0 0 31 17" fill="none" xmlns="http://www.w3.org/2000/svg">
<path fill-rule="evenodd" clip-rule="evenodd" d="M15.092 16.156H16.932C16.932 16.156 17.484 16.072 17.76 15.82C18.036 15.568 18.036 15.064 18.036 15.064C18.036 15.064 18.036 12.88 19.14 12.544C20.244 12.208 21.716 14.728 23.188 15.652C24.292 16.408 25.12 16.24 25.12 16.24L29.168 16.156C29.168 16.156 31.284 16.072 30.272 14.476C30.18 14.392 29.72 13.384 27.236 11.284C24.66 9.1 25.028 9.52 28.064 5.74C29.904 3.472 30.64 2.128 30.456 1.456C30.272 0.868002 28.892 1.036 28.892 1.036H24.292C24.292 1.036 23.924 0.952002 23.74 1.12C23.464 1.288 23.372 1.54 23.372 1.54C23.372 1.54 22.636 3.304 21.716 4.816C19.692 7.924 18.864 8.092 18.588 7.924C17.852 7.504 18.036 6.076 18.036 5.152C18.036 2.128 18.588 0.868001 17.024 0.532001C16.564 0.448001 16.196 0.364002 14.908 0.364002C13.252 0.364002 11.872 0.364002 11.136 0.700002C10.584 0.952002 10.216 1.456 10.492 1.456C10.768 1.456 11.504 1.624 11.872 2.044C12.24 2.8 12.24 4.06 12.24 4.06C12.24 4.06 12.516 7.672 11.596 8.092C10.952 8.428 10.124 7.756 8.28402 4.9C7.36402 3.472 6.62802 1.792 6.62802 1.792C6.62802 1.792 6.53602 1.456 6.26002 1.288C5.98402 1.12 5.52402 1.036 5.52402 1.036H1.20002C1.20002 1.036 0.55602 1.036 0.28002 1.288C0.09602 1.54 0.28002 1.96 0.28002 1.96C0.28002 1.96 3.68402 9.184 7.54802 12.88C11.136 16.408 15.092 16.156 15.092 16.156V16.156Z" fill="#F17979"/>
</svg>
