<svg width="30" height="30" viewBox="0 0 30 30" fill="none" xmlns="http://www.w3.org/2000/svg">
<path d="M23.9193 6.1375C22.7675 4.97991 21.3956 4.06208 19.8837 3.43756C18.3717 2.81304 16.7498 2.49433 15.1128 2.5C8.25345 2.5 2.663 8.0625 2.663 14.8875C2.663 17.075 3.24089 19.2 4.32129 21.075L2.5625 27.5L9.15798 25.775C10.9796 26.7625 13.0273 27.2875 15.1128 27.2875C21.972 27.2875 27.5625 21.725 27.5625 14.9C27.5625 11.5875 26.2685 8.475 23.9193 6.1375ZM15.1128 25.1875C13.2535 25.1875 11.4318 24.6875 9.83637 23.75L9.45949 23.525L5.53989 24.55L6.5826 20.75L6.33134 20.3625C5.29836 18.7212 4.74986 16.8241 4.74843 14.8875C4.74843 9.2125 9.39667 4.5875 15.1002 4.5875C17.864 4.5875 20.4645 5.6625 22.4117 7.6125C23.3759 8.56745 24.14 9.70333 24.6597 10.9543C25.1794 12.2052 25.4445 13.5464 25.4394 14.9C25.4645 20.575 20.8163 25.1875 15.1128 25.1875ZM20.7911 17.4875C20.4771 17.3375 18.9444 16.5875 18.668 16.475C18.3791 16.375 18.1781 16.325 17.9645 16.625C17.7509 16.9375 17.1605 17.6375 16.9846 17.8375C16.8087 18.05 16.6203 18.075 16.3062 17.9125C15.9921 17.7625 14.9871 17.425 13.8062 16.375C12.8766 15.55 12.261 14.5375 12.0726 14.225C11.8967 13.9125 12.0474 13.75 12.2107 13.5875C12.3489 13.45 12.5248 13.225 12.6756 13.05C12.8263 12.875 12.8891 12.7375 12.9896 12.5375C13.0901 12.325 13.0399 12.15 12.9645 12C12.8891 11.85 12.261 10.325 12.0097 9.7C11.7585 9.1 11.4947 9.175 11.3062 9.1625H10.7032C10.4896 9.1625 10.163 9.2375 9.87406 9.55C9.59768 9.8625 8.79366 10.6125 8.79366 12.1375C8.79366 13.6625 9.91175 15.1375 10.0625 15.3375C10.2133 15.55 12.261 18.675 15.3766 20.0125C16.1178 20.3375 16.6957 20.525 17.1479 20.6625C17.8891 20.9 18.5675 20.8625 19.1077 20.7875C19.7107 20.7 20.9545 20.0375 21.2057 19.3125C21.4695 18.5875 21.4695 17.975 21.3816 17.8375C21.2937 17.7 21.1052 17.6375 20.7911 17.4875Z" fill="#F17979"/>
</svg>
