<svg width="40" height="40" viewBox="0 0 55 55" fill="none" xmlns="http://www.w3.org/2000/svg">
<path d="M16.5 13.0952V23.5688H24.75V13.0952H30.25V23.5688H38.5V13.0952H44V23.5688L46.75 23.5714C48.8543 23.5713 50.8792 24.337 52.4102 25.7119C53.9413 27.0868 54.8628 28.9669 54.9863 30.9676L55 31.4286V34.0476C55 36.7033 53.9632 39.1286 52.2527 40.975L52.25 52.381C52.25 53.0756 51.9603 53.7417 51.4445 54.2329C50.9288 54.7241 50.2293 55 49.5 55H5.5C4.77065 55 4.07118 54.7241 3.55546 54.2329C3.03973 53.7417 2.75 53.0756 2.75 52.381V40.9619C1.27234 39.3585 0.340283 37.3658 0.0770003 35.2471L0.0165001 34.5845L1.28162e-08 34.0476V31.4286C-0.00011721 29.4244 0.803894 27.496 2.24753 26.0379C3.69117 24.5797 5.66529 23.7021 7.766 23.5845L8.25 23.5714L11 23.5688V13.0952H16.5ZM19.2555 40.9645L19.107 41.1295C17.3044 43.0039 14.8468 44.1891 12.1935 44.4636L11.561 44.5107L11 44.5238C10.0513 44.5238 9.13 44.4086 8.25 44.1938V49.7619H46.75V44.1938C44.9498 44.6346 43.0617 44.6344 41.2615 44.1935C39.4613 43.7525 37.8075 42.885 36.454 41.6717L36.0415 41.2788L35.75 40.9724L35.4557 41.2814C33.6725 43.0645 31.2854 44.1905 28.7155 44.461L28.05 44.5133L27.5 44.5238C24.622 44.5278 21.8584 43.4513 19.8083 41.5276L19.3958 41.1164L19.2555 40.9645ZM46.75 28.8095H8.25C7.57643 28.8096 6.92632 29.0451 6.42298 29.4714C5.91963 29.8977 5.59806 30.4851 5.51925 31.1221L5.5 31.4286V33.9717L5.50825 34.3567C5.59101 35.6903 6.20569 36.9434 7.22654 37.8596C8.24739 38.7759 9.59725 39.286 11 39.2857C12.3171 39.2879 13.5913 38.8396 14.5906 38.0225C15.5899 37.2053 16.248 36.0736 16.445 34.8333L16.4862 34.4326L16.5 33.9717C16.599 30.7031 21.5243 30.5852 21.9698 33.6207L21.9972 33.9717L22.0083 34.3567C22.0852 35.687 22.6915 36.9394 23.7038 37.859C24.7161 38.7786 26.0583 39.2962 27.4572 39.3066C28.8561 39.3169 30.2066 38.8192 31.2338 37.9147C32.261 37.0102 32.8876 35.7669 32.9862 34.4379L33.0192 33.6993C33.3602 30.6717 38.1398 30.6717 38.4808 33.6993L38.5137 34.4379C38.6121 35.7597 39.2328 36.9969 40.2508 37.9002C41.2689 38.8035 42.6086 39.3058 44 39.3058C45.3914 39.3058 46.7311 38.8035 47.7492 37.9002C48.7672 36.9969 49.3879 35.7597 49.4863 34.4379L49.5 34.0476V31.4286C49.4999 30.7871 49.2526 30.1679 48.805 29.6885C48.3574 29.2092 47.7407 28.9029 47.0718 28.8279L46.75 28.8095ZM13.75 0C17.38 2.28119 18.3233 5.46857 17.7348 7.56381C17.4518 8.57031 16.7605 9.42852 15.8132 9.94964C14.8658 10.4708 13.7398 10.6121 12.683 10.3426C11.6262 10.0731 10.7251 9.41481 10.1779 8.51253C9.63069 7.61026 9.48226 6.53793 9.76525 5.53143C10.5875 2.62429 13.75 3.92857 13.75 0ZM27.5 0C31.13 2.28119 32.0732 5.46857 31.4848 7.56381C31.2018 8.57031 30.5105 9.42852 29.5632 9.94964C28.6158 10.4708 27.4898 10.6121 26.433 10.3426C25.3762 10.0731 24.4751 9.41481 23.9279 8.51253C23.3807 7.61026 23.2323 6.53793 23.5152 5.53143C24.3375 2.62429 27.5 3.92857 27.5 0ZM41.25 0C44.88 2.28119 45.8232 5.46857 45.2347 7.56381C44.9518 8.57031 44.2605 9.42852 43.3132 9.94964C42.3658 10.4708 41.2398 10.6121 40.183 10.3426C39.1262 10.0731 38.2251 9.41481 37.6779 8.51253C37.1307 7.61026 36.9823 6.53793 37.2652 5.53143C38.0875 2.62429 41.25 3.92857 41.25 0Z" fill="black"/>
</svg>
