<svg width="50" height="45" viewBox="0 0 70 50" fill="none" xmlns="http://www.w3.org/2000/svg">
<path d="M69.147 24.1675L61.7878 8.22286C61.6 7.81115 61.2858 7.45987 60.8845 7.21279C60.4832 6.96571 60.0124 6.83377 59.5309 6.8334H52.1717V2.2778C52.1717 1.67369 51.9132 1.09432 51.4532 0.667153C50.9931 0.239982 50.3692 0 49.7186 0H3.10981C2.45921 0 1.83526 0.239982 1.37522 0.667153C0.915173 1.09432 0.656723 1.67369 0.656723 2.2778V41.0004C0.656723 41.6045 0.915173 42.1839 1.37522 42.6111C1.83526 43.0382 2.45921 43.2782 3.10981 43.2782H8.35943C8.92434 45.2084 10.1576 46.9123 11.8688 48.127C13.5801 49.3418 15.6743 50 17.8284 50C19.9824 50 22.0767 49.3418 23.7879 48.127C25.4992 46.9123 26.7324 45.2084 27.2973 43.2782H42.7027C43.2676 45.2084 44.5008 46.9123 46.2121 48.127C47.9234 49.3418 50.0176 50 52.1717 50C54.3257 50 56.4199 49.3418 58.1312 48.127C59.8425 46.9123 61.0757 45.2084 61.6406 43.2782H66.8902C67.5408 43.2782 68.1648 43.0382 68.6248 42.6111C69.0848 42.1839 69.3433 41.6045 69.3433 41.0004V25.0558C69.3427 24.7505 69.2759 24.4484 69.147 24.1675ZM52.1717 11.389H57.9119L63.1615 22.778H52.1717V11.389ZM17.8284 45.556C16.858 45.556 15.9095 45.2888 15.1026 44.7883C14.2958 44.2877 13.667 43.5762 13.2956 42.7438C12.9243 41.9113 12.8271 40.9954 13.0165 40.1117C13.2058 39.228 13.673 38.4162 14.3592 37.7791C15.0453 37.142 15.9195 36.7081 16.8712 36.5323C17.8229 36.3566 18.8094 36.4468 19.7059 36.7916C20.6024 37.1364 21.3686 37.7203 21.9077 38.4695C22.4468 39.2186 22.7346 40.0994 22.7346 41.0004C22.7346 42.2086 22.2176 43.3674 21.2976 44.2217C20.3775 45.076 19.1296 45.556 17.8284 45.556ZM42.7027 38.7226H27.2973C26.7324 36.7925 25.4992 35.0886 23.7879 33.8738C22.0767 32.659 19.9824 32.0008 17.8284 32.0008C15.6743 32.0008 13.5801 32.659 11.8688 33.8738C10.1576 35.0886 8.92434 36.7925 8.35943 38.7226H5.56291V4.5556H47.2655V33.1648C46.1484 33.7668 45.1704 34.5676 44.3874 35.5213C43.6044 36.4751 43.0319 37.563 42.7027 38.7226ZM52.1717 45.556C51.2013 45.556 50.2527 45.2888 49.4459 44.7883C48.6391 44.2877 48.0103 43.5762 47.6389 42.7438C47.2676 41.9113 47.1704 40.9954 47.3597 40.1117C47.549 39.228 48.0163 38.4162 48.7025 37.7791C49.3886 37.142 50.2628 36.7081 51.2145 36.5323C52.1662 36.3566 53.1527 36.4468 54.0492 36.7916C54.9457 37.1364 55.7119 37.7203 56.251 38.4695C56.7901 39.2186 57.0778 40.0994 57.0778 41.0004C57.0778 42.2086 56.5609 43.3674 55.6408 44.2217C54.7208 45.076 53.4729 45.556 52.1717 45.556ZM64.4371 38.7226H61.6406C61.0981 36.7717 59.8745 35.0428 58.1612 33.8064C56.4479 32.57 54.3416 31.8958 52.1717 31.8892V27.3336H64.4371V38.7226Z" fill="black"/>
</svg>
