<svg width="30" height="30" viewBox="0 0 30 30" xmlns="http://www.w3.org/2000/svg">
<path d="M28.2612 16.1137L29.9877 6.66333C30.0085 6.54136 30.0029 6.41632 29.9711 6.29672C29.9394 6.17711 29.8823 6.06573 29.8037 5.97012C29.7261 5.87209 29.6271 5.79309 29.5143 5.73915C29.4014 5.68521 29.2778 5.65775 29.1527 5.65888H6.08528L5.34938 1.62693C5.26944 1.17101 5.03117 0.757893 4.67653 0.460299C4.32189 0.162705 3.87361 -0.000291366 3.41058 3.90995e-07H0.849108C0.623911 3.90995e-07 0.407937 0.0894306 0.248698 0.248617C0.0894594 0.407804 0 0.623708 0 0.848833C0 1.07396 0.0894594 1.28986 0.248698 1.44905C0.407937 1.60823 0.623911 1.69766 0.849108 1.69766H3.41058C3.47437 1.69957 3.53563 1.72297 3.58444 1.76406C3.63325 1.80514 3.66674 1.86151 3.67947 1.92402L7.59952 23.4561C7.11477 23.846 6.73685 24.3525 6.50111 24.9281C6.26537 25.5038 6.17951 26.1298 6.25155 26.7476C6.32359 27.3654 6.55118 27.9549 6.91304 28.4609C7.2749 28.9669 7.75921 29.3729 8.32069 29.641C8.88217 29.909 9.50247 30.0303 10.1236 29.9936C10.7447 29.9568 11.3464 29.7632 11.8723 29.4309C12.3983 29.0985 12.8313 28.6383 13.131 28.0931C13.4306 27.548 13.5871 26.9358 13.5857 26.3138C13.5886 25.6113 13.387 24.9232 13.0055 24.3332H21.5249C21.1434 24.9232 20.9418 25.6113 20.9447 26.3138C20.9447 27.0413 21.1605 27.7524 21.5648 28.3573C21.9691 28.9622 22.5437 29.4337 23.2161 29.7121C23.8884 29.9905 24.6282 30.0633 25.342 29.9214C26.0557 29.7795 26.7113 29.4291 27.2259 28.9147C27.7405 28.4003 28.0909 27.7449 28.2329 27.0314C28.3749 26.3179 28.302 25.5783 28.0235 24.9062C27.745 24.2341 27.2734 23.6596 26.6683 23.2554C26.0633 22.8513 25.3519 22.6355 24.6241 22.6355H9.17037L8.44863 18.6743H25.2044C25.9331 18.6726 26.6382 18.4154 27.1967 17.9475C27.7553 17.4796 28.132 16.8306 28.2612 16.1137ZM11.8875 26.3138C11.8875 26.7055 11.7713 27.0885 11.5536 27.4142C11.3359 27.7399 11.0265 27.9937 10.6645 28.1436C10.3024 28.2935 9.90407 28.3328 9.51974 28.2563C9.13542 28.1799 8.78239 27.9913 8.50531 27.7143C8.22822 27.4373 8.03953 27.0844 7.96308 26.7002C7.88663 26.316 7.92587 25.9178 8.07582 25.5559C8.22578 25.1939 8.47972 24.8846 8.80554 24.667C9.13135 24.4493 9.51441 24.3332 9.90626 24.3332C10.4317 24.3332 10.9357 24.5419 11.3072 24.9133C11.6788 25.2847 11.8875 25.7885 11.8875 26.3138ZM26.6054 26.3138C26.6054 26.7055 26.4892 27.0885 26.2715 27.4142C26.0538 27.7399 25.7444 27.9937 25.3823 28.1436C25.0203 28.2935 24.6219 28.3328 24.2376 28.2563C23.8533 28.1799 23.5003 27.9913 23.2232 27.7143C22.9461 27.4373 22.7574 27.0844 22.681 26.7002C22.6045 26.316 22.6437 25.9178 22.7937 25.5559C22.9437 25.1939 23.1976 24.8846 23.5234 24.667C23.8492 24.4493 24.2323 24.3332 24.6241 24.3332C25.1496 24.3332 25.6535 24.5419 26.0251 24.9133C26.3967 25.2847 26.6054 25.7885 26.6054 26.3138ZM6.39662 7.35655H28.1338L26.5912 15.8166C26.5318 16.1413 26.3606 16.4351 26.1073 16.6469C25.854 16.8588 25.5346 16.9754 25.2044 16.9766H8.15144L6.39662 7.35655Z"/>
</svg>
