<svg width="25" height="26" viewBox="0 0 25 26" xmlns="http://www.w3.org/2000/svg">
<path d="M9.72218 0.5C4.35276 0.5 0 4.85276 0 10.2222C0 15.5916 4.35276 19.9444 9.72218 19.9444C12.0013 19.9479 14.2087 19.1472 15.9555 17.6833L23.518 25.2457C23.5986 25.3263 23.6943 25.3903 23.7996 25.4339C23.9049 25.4775 24.0178 25.5 24.1318 25.5C24.2458 25.5 24.3587 25.4775 24.4641 25.4339C24.5694 25.3903 24.6651 25.3263 24.7457 25.2457C24.8263 25.1651 24.8903 25.0694 24.9339 24.9641C24.9775 24.8587 25 24.7458 25 24.6318C25 24.5178 24.9775 24.4049 24.9339 24.2996C24.8903 24.1943 24.8263 24.0986 24.7457 24.0179L17.1833 16.4555C18.647 14.7086 19.4477 12.5013 19.4444 10.2222C19.4444 4.85276 15.0916 0.5 9.72218 0.5ZM1.7361 10.2222C1.7361 5.81178 5.31178 2.2361 9.72218 2.2361C14.1326 2.2361 17.7083 5.81178 17.7083 10.2222C17.7083 14.6326 14.1326 18.2083 9.72218 18.2083C5.31178 18.2083 1.7361 14.6326 1.7361 10.2222Z"/>
</svg>
